<svg xmlns="http://www.w3.org/2000/svg" viewBox="0 0 56 52" fill="none">
  <defs>
    <linearGradient id="g" x1="0" y1="0" x2="56" y2="52" gradientUnits="userSpaceOnUse">
      <stop offset="0%" stop-color="#60A5FA"/>
      <stop offset="45%" stop-color="#2563EB"/>
      <stop offset="100%" stop-color="#1E3A8A"/>
    </linearGradient>
    <linearGradient id="shine" x1="0" y1="0" x2="0" y2="52" gradientUnits="userSpaceOnUse">
      <stop offset="0%" stop-color="white" stop-opacity="0.28"/>
      <stop offset="60%" stop-color="white" stop-opacity="0"/>
    </linearGradient>
  </defs>

  <!-- L: vertical bar + horizontal base -->
  <rect x="2" y="2" width="9" height="48" rx="2.5" fill="url(#g)"/>
  <rect x="2" y="41" width="22" height="9" rx="2.5" fill="url(#g)"/>

  <!-- C: open right, bold -->
  <path d="
    M 54 2
    L 42 2
    C 27 2, 17 13, 17 27
    C 17 41, 27 52, 42 52
    L 54 52
    L 54 43
    L 42 43
    C 33 43, 26 36, 26 27
    C 26 18, 33 11, 42 11
    L 54 11
    Z
  " fill="url(#g)"/>

  <!-- Shine overlay -->
  <rect x="2" y="2" width="9" height="48" rx="2.5" fill="url(#shine)"/>
  <path d="M54 2 L42 2 C27 2,17 13,17 27 C17 41,27 52,42 52 L54 52 L54 43 L42 43 C33 43,26 36,26 27 C26 18,33 11,42 11 L54 11 Z" fill="url(#shine)"/>
</svg>
